<svg width="69" height="61" viewBox="0 0 69 61" fill="none" xmlns="http://www.w3.org/2000/svg">
<path d="M25.7537 26.6875C25.7537 24.5763 23.8212 22.8702 21.4412 22.8702L19.4062 22.875C14.6436 22.875 10.7812 26.2896 10.7812 30.5095V36.2033C10.7812 40.4244 14.649 43.8438 19.4062 43.8438H21.5625C23.9425 43.8438 25.875 42.1329 25.875 40.0241L25.7537 26.6875ZM34.5 0C15.215 0 0.617631 14.1896 0.00280312 30.5L0 35.2656C0 36.8502 1.44873 38.125 3.11309 38.125C4.77744 38.125 6.46875 36.8502 6.46875 35.2656V30.5C6.46875 16.8346 19.0478 5.74258 34.5 5.74258C49.9576 5.74258 62.5312 16.8346 62.5312 30.5V47.6562C62.5312 50.2881 60.1176 52.4219 57.1406 52.4219H42.2221C41.1035 50.7182 39.0416 49.5625 36.6562 49.5625H32.5863C29.4584 49.5625 26.5893 51.4318 26.0003 54.1482C25.2012 57.807 28.3547 61 32.2225 61H36.6562C39.0443 61 41.1076 59.843 42.2275 58.1406H57.1406C63.6902 58.1406 69 53.4465 69 47.6562V30.5C68.3801 14.1896 53.785 0 34.5 0ZM49.5938 43.8438C54.3564 43.8438 58.2188 40.4244 58.2188 36.2033V30.5119C58.2188 26.2943 54.351 22.875 49.5938 22.875H47.4375C45.0575 22.875 43.125 24.5835 43.125 26.6923V40.0193C43.125 42.14 45.0521 43.8438 47.4375 43.8438H49.5938Z" fill="white"/>
</svg>
