<svg width="62" height="55" viewBox="0 0 62 55" fill="none" xmlns="http://www.w3.org/2000/svg">
<path d="M10.3333 0C11.5712 0 12.6368 0.879785 12.8736 2.0958L13.0351 3.4375H58.3187C60.5038 3.4375 62.2476 5.61279 61.634 7.80527L55.8215 28.4346C55.4017 29.917 54.0455 30.9375 52.5062 30.9375H18.374L19.3642 36.0938H52.5278C53.9594 36.0938 55.1111 37.2432 55.1111 38.6719C55.1111 40.1006 53.9594 41.25 52.5278 41.25H17.1253C15.9844 41.25 14.9187 40.3691 14.6819 39.1553L8.19563 5.15625H2.58333C1.15712 5.15625 0 4.00146 0 2.57812C0 1.15479 1.15712 0 2.58333 0H10.3333ZM13.7778 49.8438C13.7778 46.9971 16.092 44.6875 18.9444 44.6875C21.7969 44.6875 24.1111 46.9971 24.1111 49.8438C24.1111 52.6904 21.7969 55 18.9444 55C16.092 55 13.7778 52.6904 13.7778 49.8438ZM55.1111 49.8438C55.1111 52.6904 52.7969 55 49.9444 55C47.092 55 44.7778 52.6904 44.7778 49.8438C44.7778 46.9971 47.092 44.6875 49.9444 44.6875C52.7969 44.6875 55.1111 46.9971 55.1111 49.8438Z" fill="white"/>
</svg>
